<svg xmlns="http://www.w3.org/2000/svg" xmlns:xlink="http://www.w3.org/1999/xlink" xmlns:v="https://vecta.io/nano" width="406" height="331" fill="none"><style><![CDATA[.B{fill:#fff}.C{fill:#dcddde}.D{fill:#b9bbbe}.E{fill:#f7e5bc}.F{fill-rule:evenodd}.G{fill:#201e2f}.H{fill:#c4c4c4}.I{fill:#72767d}.J{fill:#fdd171}.K{fill:#d6569b}.L{fill:#e374b0}.M{fill:#f06ea8}.N{fill:#4d7ae8}.O{fill:#dbe7ff}.P{fill:#11111a}.Q{fill:#e05fa3}]]></style><g clip-path="url(#K)"><g class="P"><use xlink:href="#Y"></use><use xlink:href="#Y"></use></g><path d="M0 240.316h406v20.429c0 1.241-.491 2.431-1.365 3.308a4.65 4.65 0 0 1-3.295 1.371H4.66a4.65 4.65 0 0 1-3.295-1.371C.491 263.176 0 261.986 0 260.745v-20.429z" fill="#262636"></path><mask id="A" maskUnits="userSpaceOnUse" x="5" y="10" width="396" height="229"><path d="M400.719 10.916H5.436v228.051h395.283V10.916z" class="C"></path></mask><g mask="url(#A)"><path d="M400.719 10.916H5.436v228.051h395.283V10.916z" class="J"></path><rect x="261.006" y="19.221" width="301.01" height="211.603" rx="4.053" fill="#36393f"></rect><path d="M277.217 48.604c0-1.119.907-2.026 2.026-2.026h14.185c1.119 0 2.026.907 2.026 2.026v6.079c0 1.119-.907 2.026-2.026 2.026h-14.185c-1.119 0-2.026-.907-2.026-2.026v-6.079z" class="C"></path><path d="M299.507 48.604a2.03 2.03 0 0 1 2.027-2.026h66.871c1.119 0 2.026.907 2.026 2.026v6.079c0 1.119-.907 2.026-2.026 2.026h-66.871a2.03 2.03 0 0 1-2.027-2.026v-6.079z" fill="#6adbc6"></path><path d="M279.243 66.842c0-1.119.907-2.026 2.027-2.026h93.214a2.03 2.03 0 0 1 2.027 2.026v6.079c0 1.119-.908 2.026-2.027 2.026H281.27c-1.12 0-2.027-.907-2.027-2.026v-6.079zm101.321 0c0-1.119.907-2.026 2.026-2.026h93.215c1.119 0 2.026.907 2.026 2.026v6.079c0 1.119-.907 2.026-2.026 2.026H382.59c-1.119 0-2.026-.907-2.026-2.026v-6.079zM277.217 85.079c0-1.119.907-2.026 2.026-2.026h66.872c1.119 0 2.026.907 2.026 2.026v6.079c0 1.119-.907 2.026-2.026 2.026h-66.872c-1.119 0-2.026-.907-2.026-2.026v-6.079z" class="C"></path><path d="M352.194 85.079c0-1.119.907-2.026 2.026-2.026h14.185c1.119 0 2.026.907 2.026 2.026v6.079c0 1.119-.907 2.026-2.026 2.026H354.22c-1.119 0-2.026-.907-2.026-2.026v-6.079z" fill="#648ae8"></path><path d="M277.217 103.317c0-1.119.907-2.026 2.026-2.026h54.713c1.119 0 2.027.907 2.027 2.026v6.079a2.03 2.03 0 0 1-2.027 2.027h-54.713c-1.119 0-2.026-.908-2.026-2.027v-6.079zm62.818 0c0-1.119.908-2.026 2.027-2.026h50.66c1.119 0 2.026.907 2.026 2.026v6.079c0 1.119-.907 2.027-2.026 2.027h-50.66a2.03 2.03 0 0 1-2.027-2.027v-6.079zm-62.818 18.238c0-1.119.907-2.027 2.026-2.027h77.004c1.119 0 2.026.908 2.026 2.027v6.079c0 1.119-.907 2.026-2.026 2.026h-77.004c-1.119 0-2.026-.907-2.026-2.026v-6.079zm85.109 0c0-1.12.907-2.027 2.026-2.027h77.004c1.119 0 2.026.907 2.026 2.027v6.079c0 1.119-.907 2.026-2.026 2.026h-77.004c-1.119 0-2.026-.907-2.026-2.026v-6.079zm-85.109 18.237c0-1.119.907-2.026 2.026-2.026h66.872c1.119 0 2.026.907 2.026 2.026v6.08c0 1.119-.907 2.026-2.026 2.026h-66.872c-1.119 0-2.026-.907-2.026-2.026v-6.08z" class="C"></path><path d="M352.194 139.792c0-1.119.907-2.026 2.026-2.026h14.185c1.119 0 2.026.907 2.026 2.026v6.08c0 1.119-.907 2.026-2.026 2.026H354.22c-1.119 0-2.026-.907-2.026-2.026v-6.08z" fill="#6adbc6"></path><path d="M277.217 158.03c0-1.119.907-2.026 2.026-2.026h89.162c1.119 0 2.027.907 2.027 2.026v6.079a2.03 2.03 0 0 1-2.027 2.027h-89.162c-1.119 0-2.026-.908-2.026-2.027v-6.079z" class="C"></path><path d="M374.484 158.03c0-1.119.908-2.026 2.027-2.026h60.792c1.119 0 2.026.907 2.026 2.026v6.079c0 1.119-.907 2.027-2.026 2.027h-60.792a2.03 2.03 0 0 1-2.027-2.027v-6.079z" class="Q"></path><path d="M277.217 176.268c0-1.12.907-2.027 2.026-2.027h14.185c1.119 0 2.026.907 2.026 2.027v6.079c0 1.119-.907 2.026-2.026 2.026h-14.185c-1.119 0-2.026-.907-2.026-2.026v-6.079z" fill="#648ae8"></path><path d="M299.507 176.268c0-1.12.908-2.027 2.027-2.027h95.241c1.119 0 2.026.907 2.026 2.027v6.079c0 1.119-.907 2.026-2.026 2.026h-95.241c-1.119 0-2.027-.907-2.027-2.026v-6.079z" class="C"></path><path d="M276.026 203.765l4.781 4.81-4.781 4.811 1.472 1.478 6.263-6.289-6.263-6.288-1.472 1.478z" fill="#2ddfb4" class="F"></path></g><g clip-path="url(#L)"><rect x="19.725" y="18.914" width="234.959" height="212.282" rx="4.066" fill="#292841"></rect><mask id="B" maskUnits="userSpaceOnUse" x="93" y="55" width="17" height="17"><ellipse cx="101.502" cy="63.373" rx="7.978" ry="8.011" class="H"></ellipse></mask><g mask="url(#B)"><ellipse cx="101.502" cy="63.373" rx="7.978" ry="8.011" class="E"></ellipse><path d="M110.677 68.388l-1.084 2.511c-.085.198-.208.377-.363.527s-.339.266-.539.343-.415.113-.63.105a1.6 1.6 0 0 1-.621-.149l-4.052-1.851 2.018-3.194 2.47 1.383.364-1.081c1.274.509 1.954.954 2.437 1.407z" class="E"></path><path d="M105.968 67.172c1.631.27 1.781.612 2.216 1.47l-1.749-.199-.467-1.271z" class="E"></path><path d="M98.292 53.56a1.34 1.34 0 0 0-.765.62 1.35 1.35 0 0 0-.137.978l1.622 6.651 2.904-.604-1.954-6.738a1.34 1.34 0 0 0-.242-.468 1.33 1.33 0 0 0-.403-.337c-.156-.084-.326-.137-.502-.154s-.353.001-.522.053z" class="K"></path><path d="M99.906 60.251l1.148-.048-1.219-4.005a.44.44 0 0 0-.084-.157c-.038-.046-.086-.084-.139-.11s-.112-.042-.172-.046-.119.006-.175.027a.43.43 0 0 0-.261.509l.902 3.83z" class="L"></path><path d="M105.011 53.528a1.34 1.34 0 0 1 .772.612 1.35 1.35 0 0 1 .146.977l-1.551 6.659-2.913-.564 1.884-6.762c.047-.171.128-.331.238-.47a1.32 1.32 0 0 1 .4-.341 1.33 1.33 0 0 1 1.024-.111z" class="K"></path><path d="M103.911 60.235l-1.14-.04 1.171-4.021c.017-.058.046-.111.084-.157a.43.43 0 0 1 .14-.109c.054-.026.112-.041.172-.043s.119.008.174.031c.098.036.18.107.229.199s.064.2.04.301l-.87 3.838z" class="L"></path><path d="M107.163 69.929l-.474 1.51-.064.191-.585 1.844H95.15c-.103-.405.024-.485.301-.938s.135-.334.174-1.43c.032-.771.309-1.486 1.298-2.376l.681-.652.095-.087.047-.048.063-.048 7.439-1.176 1.496 2.503.419.707z" class="E"></path><path d="M106.689 71.439l-.19 2.034h-8.001l.032-1.224a1.07 1.07 0 0 1 .008-.159v-.612c-.055-1.454-.467-2.447-1.614-2.749l.681-.652.095-.087.111-.095 7.439-1.176c.586.215.974.365 1.417.818l.079 1.685-.055 2.217z" fill="#1f3a70"></path><path d="M105.975 63.574l-8.634.347c-1.136.046-2.021 1.008-1.975 2.149v.003c.045 1.141 1.004 2.029 2.14 1.983l8.634-.347c1.137-.046 2.021-1.008 1.976-2.149v-.003c-.046-1.141-1.004-2.029-2.14-1.983z" class="M"></path><path d="M105.524 59.73l-8.389.353c-1.201.051-2.134 1.069-2.083 2.275l.003.072a2.18 2.18 0 0 0 2.266 2.092l8.389-.353a2.18 2.18 0 0 0 2.083-2.275l-.003-.072a2.18 2.18 0 0 0-2.265-2.092z" class="M"></path><path d="M106.111 67.641c1.108-.048 2.018-.946 2.018-2.058.004-.404-.112-.801-.331-1.14s-.534-.606-.904-.767a2.17 2.17 0 0 0 .65-.809c.149-.318.219-.668.205-1.019v-.072c-.012-.287-.081-.569-.201-.829a2.19 2.19 0 0 0-.503-.689c-.211-.194-.458-.345-.727-.443s-.554-.142-.84-.129l-7.487.318c-.673 1.295-.578 2.686-.079 3.687.073.152.114.317.12.485s-.021.336-.081.493c-.72 1.923.23 3.314.23 3.314l7.93-.342z" class="Q"></path><path d="M100.065 63.745c.191-.125.201-.447.024-.718s-.475-.391-.665-.266-.201.447-.024.718.475.391.665.266zm3.75-.593c.083-.296-.015-.582-.217-.638s-.432.137-.515.433.015.582.217.638.433-.137.515-.433z" fill="#1b1926"></path><path d="M100.896 64.701c.522.89 1.29 1.097 1.804-.056.006-.01.009-.022.009-.034s-.004-.024-.011-.034a.06.06 0 0 0-.027-.023c-.011-.005-.023-.007-.034-.005l-1.686.048c-.011.001-.022.005-.032.012s-.017.015-.023.025-.008.021-.008.033.002.023.008.033z" fill="#751b40"></path><path d="M101.948 64.573l-.997.024c-.011.001-.022.005-.032.012s-.017.015-.023.025-.008.022-.008.033.002.023.008.033c.451.763 1.076 1.025 1.574.358a1.25 1.25 0 0 0-.522-.485z" fill="#9c2455"></path></g><g clip-path="url(#M)"><rect x="115.863" y="55.363" width="19.148" height="8.011" rx="2.033" class="J"></rect><rect x="136.606" y="58.567" width="19.148" height="4.806" rx="2.033" class="I"></rect></g><path d="M115.863 67.008c0-1.123.91-2.033 2.033-2.033h72.525c1.123 0 2.033.91 2.033 2.033v18.364c0 1.123-.91 2.033-2.033 2.033h-72.525c-1.123 0-2.033-.91-2.033-2.033V67.008z" fill="#1c1b29"></path><path d="M131.82 73.417c0-1.123.91-2.033 2.032-2.033h53.378c1.123 0 2.033.91 2.033 2.033v5.547c0 1.123-.91 2.033-2.033 2.033h-53.378c-1.122 0-2.032-.91-2.032-2.033v-5.547z" class="C"></path><g clip-path="url(#N)" class="D"><path d="M123.442 80.596c-1.155 0-1.994-.926-1.994-2.203v-3.404c0-1.599 1.114-2.804 2.593-2.804s2.593 1.205 2.593 2.804v2.804h-.798v-2.804c0-1.161-.755-2.003-1.795-2.003s-1.795.842-1.795 2.003v3.404c0 .698.37 1.402 1.196 1.402s1.197-.704 1.197-1.402v-3.004c0-.241-.058-.801-.598-.801s-.599.56-.599.801v2.804h-.797v-2.804c0-.959.561-1.602 1.396-1.602s1.396.644 1.396 1.602v3.004c0 1.277-.839 2.203-1.995 2.203z"></path></g><mask id="C" maskUnits="userSpaceOnUse" x="93" y="93" width="17" height="17"><ellipse cx="101.502" cy="101.824" rx="7.978" ry="8.011" class="H"></ellipse></mask><g mask="url(#C)"><ellipse cx="101.502" cy="101.824" rx="7.978" ry="8.011" fill="#ffb869"></ellipse><path d="M97.408 104.44c.931 3.251 4.677 5.504 7.682 3.379s.021-6.481.021-6.481 1.63-4.122-2.455-5.099-5.1.807-5.248 8.201z" class="N"></path><path d="M103.461 102.061c-.456 0-.826-.495-.826-1.105s.37-1.105.826-1.105.825.494.825 1.105-.37 1.105-.825 1.105z" class="O"></path><use xlink:href="#Z" class="G"></use><path d="M104.413 98.895c-.055-.165-.16-.309-.3-.41s-.31-.156-.483-.156-.342.055-.483.156-.245.245-.3.41h1.566z" class="G"></path><path d="M104.328 103.59c-.804.213-1.672.022-2.391-.764a.55.55 0 0 0-.368-.187c-.142-.012-.284.032-.394.123a.55.55 0 0 0-.231.352c-.028.143.002.291.083.413 1.1 1.806 2.814 2.082 3.873 1.062.072-.065.126-.149.156-.242s.034-.193.013-.289a.6.6 0 0 0-.092-.227c-.046-.069-.106-.127-.176-.171a.59.59 0 0 0-.473-.07z" fill="#590942"></path><path d="M103.714 103.675a2.09 2.09 0 0 0 .614-.085h.191v.532s-.318.233-1.503.106v-.298l-2.074-.701a.55.55 0 0 1 .233-.446c.01-.019.015-.021.021-.021a.48.48 0 0 1 .296-.085c.022-.021.064 0 .085 0h.19c.022.021.043.021.043.042s.042 0 .042.022l.085.063a2.37 2.37 0 0 0 .423.383l.296.191a1.64 1.64 0 0 0 .445.191 1.94 1.94 0 0 0 .613.106z" class="O"></path><path d="M101.175 102.762c.01-.019.015-.021.021-.021a.48.48 0 0 1 .296-.085c.022-.022.064 0 .085 0h.19c.022.021.043.021.043.042s.042 0 .042.021l.085.064a1.2 1.2 0 0 0 .233.234l-.593.361-.635-.212c.007-.081.032-.158.072-.228s.095-.13.161-.176z" fill="#b5cdff"></path><path d="M98.276 97.726c.762-1.7 2.095-2.04 4.38-1.487.461.103.903.275 1.312.51.127.68-.91.892-2.835.276.634 1.147-.678 3.187-2.857.701z" class="G"></path><path d="M100.942 96.175l.106-1.402a.91.91 0 0 0-.053-.377c-.045-.12-.115-.23-.205-.32s-.199-.161-.319-.206-.248-.063-.375-.053c-.144.008-.284.051-.407.125a.89.89 0 0 0-.302.301c-.075.123-.119.263-.128.407s.016.288.075.42l.635 1.445.973-.34z" class="G"></path><path d="M95.44 103.676l.635.233 1.333-.871v1.084l1.1.871c.231.191.422.427.56.693a2.24 2.24 0 0 1 .244.858l.042.871c1.608 1.339 3.809 1.764 5.735.404a3.59 3.59 0 0 0 .825-.765l.656.234s-1.333 5.631-3.555 6.651-3.767 0-3.767 0c-2.328-7.947-1.651-9.435-7.407-7.14l-.275-1.615 3.873-1.508z" fill="#ef6767"></path><path d="M100.053 101.147l-4.19-3.931-.381.489 3.238 6.056 1.333-2.614z" class="N"></path><path d="M98.53 100.254l-1.651-1.168 1.27 2.295-.233-.893.614-.234z" fill="#3366e0"></path></g><g clip-path="url(#O)"><rect x="115.863" y="93.814" width="24.395" height="10.165" rx="2.033" class="J"></rect><rect x="142.291" y="97.88" width="24.395" height="6.099" rx="2.033" class="I"></rect></g><g class="C"><path d="M115.863 105.459c0-1.122.91-2.032 2.033-2.032h72.525c1.123 0 2.033.91 2.033 2.032v3.945c0 1.123-.91 2.033-2.033 2.033h-74.558v-5.978z"></path><path d="M115.863 111.437h38.296v5.978c0 1.123-.911 2.033-2.033 2.033h-34.23c-1.123 0-2.033-.91-2.033-2.033v-5.978z"></path></g><mask id="D" maskUnits="userSpaceOnUse" x="93" y="125" width="17" height="17"><ellipse cx="101.502" cy="133.867" rx="7.978" ry="8.011" class="H"></ellipse></mask><g mask="url(#D)"><ellipse cx="101.502" cy="133.867" rx="7.978" ry="8.011" fill="#ff82a6"></ellipse><path d="M106.014 127.73l-.023.069-.07.167-.024.068-.054.122c-1.194 2.786-3.482 4.84-4.998 6.269a23.17 23.17 0 0 1-5.247 3.701c-1.883.908-2.733.094-2.522-1.45l.189-.775.931-3.908.04-.19c.63-2.546 1.6-4.009 4.749-4.801l4.792-1.184.016-.007c1.673-.407 2.837.157 2.221 1.919z" fill="url(#H)"></path><path d="M105.523 125.833c-1.52.255-4.367 2.093-7.192 4.79s-4.984 5.675-5.18 7.135c.266.779 1.084 1.02 2.448.368a23.14 23.14 0 0 0 5.247-3.701c1.516-1.428 3.803-3.482 4.997-6.268l.055-.121.023-.069.07-.167.023-.068c.366-1.033.122-1.651-.491-1.899z" fill="url(#I)"></path><path d="M101.006 133.42c2.741-2.612 4.56-5.154 4.064-5.679s-3.119 1.167-5.86 3.778-4.56 5.154-4.064 5.678 3.12-1.166 5.86-3.777z" fill="#6b3143"></path><path d="M100.436 137.958l-.726.528a1.42 1.42 0 0 0-.624 1.047l-.123.951-1.279 1.179a1.49 1.49 0 0 0-.442.995l.007.906s6.98 3.73 10.737 3.056 1.477-7.134 1.477-7.134c-.034-.064-.084-.116-.145-.153a.38.38 0 0 0-.203-.055l-1.115-.077-.475-1.169a.72.72 0 0 0-.203-.279c-.089-.075-.195-.127-.31-.151l-3.288-.694-3.289 1.05z" fill="#ef6270"></path><path d="M100.591 139.905c-1-.19-.932-.167-.647-.63a1.79 1.79 0 0 1 .689-.68l-.042 1.31z" fill="#bd3c53"></path><path d="M102.13 130.614c-.121-.131-1.13.594-2.248 1.637s-1.924 1.99-1.804 2.121c1.341 2.052 2.234 4.001 2.509 5.535l5.459 1.068c-.29-4.864-2.554-8.187-3.916-10.361z" fill="#ffb685"></path><path d="M104.2 134.938c-.046-.173-.178-.287-.296-.256s-.177.197-.131.37.178.287.296.255.177-.197.131-.369zm-1.792 1.02c.086-.124.024-.315-.138-.428s-.362-.103-.447.021-.024.315.138.428.362.103.447-.021z" fill="#543247"></path><path d="M103.532 137.644c.457-.225.877-.451 1.074-.396s.11.42-.107.829-.154.228-.653.095-.665-.355-.314-.528z" fill="#c74153"></path><path d="M103.722 137.569l-.351.249c.014.145.217.291.475.354s.553.087.653-.095l.093-.197c-.128-.108-.482-.369-.87-.311z" fill="#a82c3c"></path><path d="M104.415 137.246c-.305.106-.601.239-.883.398-.199.097-.184.204-.094.311l1.051-.48c.061-.03-.014-.144-.074-.229z" class="B"></path><path d="M105.74 135.816c.008-.023-.007-.054.001-.076-.018-.155-.083-.3-.187-.415s-.24-.195-.391-.229c.036.033.065.073.084.119s.026.095.023.144a.33.33 0 0 1-.043.14c-.024.043-.058.079-.099.107a1.08 1.08 0 0 1-.48.141 1.52 1.52 0 0 0-.619.213c-.189.116-.35.272-.472.457-.774-.036-1.044.457-1.593.727-.148.077-.307.13-.471.156-.54.095-.629-.126-.642-.423-.596.483-.223 1.171.239 1.341.272.132.636.066 1.019-.236.946.235 1.281.108 1.828-.786.901.22 1.481-.142 1.527-.979a.51.51 0 0 0 .189-.165.52.52 0 0 0 .087-.236z" fill="#6b3143"></path><path d="M103.937 137.196c.901.22 1.481-.142 1.527-.979a.5.5 0 0 0 .189-.165c.048-.07.078-.151.088-.236.007-.023-.008-.053 0-.076-.015-.079-.04-.156-.074-.229a.51.51 0 0 1-.414.545c-.271.607-.819.725-1.447.599 0 0-.708.992-1.684.772-.689.565-1.424.492-1.578-.058a.83.83 0 0 0 .13.518c.098.153.245.27.416.331.272.132.637.066 1.019-.236.946.235 1.281.108 1.828-.786z" fill="#5e2737"></path></g><g clip-path="url(#P)"><rect x="115.863" y="125.856" width="19.148" height="8.011" rx="2.033" fill="#ffa78b"></rect><rect x="136.606" y="129.061" width="19.148" height="4.806" rx="2.033" class="I"></rect></g><path d="M115.863 137.502c0-1.123.91-2.033 2.033-2.033h72.525c1.123 0 2.033.91 2.033 2.033v3.945c0 1.122-.91 2.033-2.033 2.033h-72.525c-1.123 0-2.033-.911-2.033-2.033v-3.945z" class="C"></path><mask id="E" maskUnits="userSpaceOnUse" x="93" y="149" width="17" height="17"><ellipse cx="101.502" cy="157.899" rx="7.978" ry="8.011" class="H"></ellipse></mask><g mask="url(#E)"><ellipse cx="101.502" cy="157.899" rx="7.978" ry="8.011" class="E"></ellipse><path d="M110.677 162.913l-1.084 2.511c-.085.198-.208.377-.363.527a1.62 1.62 0 0 1-.539.343c-.201.077-.415.113-.63.105a1.59 1.59 0 0 1-.621-.149l-4.052-1.851 2.018-3.194 2.47 1.382.364-1.08c1.274.508 1.954.953 2.437 1.406z" class="E"></path><path d="M105.968 161.697c1.631.27 1.781.612 2.216 1.47l-1.749-.198-.467-1.272z" class="E"></path><path d="M98.292 148.086a1.34 1.34 0 0 0-.765.619 1.35 1.35 0 0 0-.137.978l1.622 6.651 2.904-.604-1.954-6.739a1.34 1.34 0 0 0-.242-.467c-.111-.138-.248-.253-.403-.337a1.31 1.31 0 0 0-.502-.154 1.3 1.3 0 0 0-.522.053z" class="K"></path><path d="M99.906 154.776l1.148-.048-1.219-4.004c-.017-.058-.045-.111-.084-.157s-.086-.084-.139-.111-.112-.042-.172-.045a.42.42 0 0 0-.175.027c-.098.037-.179.11-.227.204a.43.43 0 0 0-.034.304l.902 3.83z" class="L"></path><path d="M105.011 148.054a1.34 1.34 0 0 1 .772.612 1.35 1.35 0 0 1 .146.977l-1.551 6.659-2.913-.564 1.884-6.763a1.33 1.33 0 0 1 .238-.47c.109-.139.245-.255.4-.341s.325-.14.501-.159a1.32 1.32 0 0 1 .523.049z" class="K"></path><path d="M103.911 154.76l-1.14-.04 1.171-4.02a.44.44 0 0 1 .084-.157c.039-.046.086-.083.14-.109a.43.43 0 0 1 .172-.043c.059-.002.119.008.174.031.098.036.18.107.229.199s.064.199.04.301l-.87 3.838z" class="L"></path><path d="M107.163 164.454l-.474 1.51-.064.191-.585 1.843H95.15c-.103-.405.024-.484.301-.937s.135-.334.174-1.43c.032-.771.309-1.486 1.298-2.376l.681-.652.095-.087.047-.048.063-.048 7.439-1.176 1.496 2.503.419.707z" class="E"></path><path d="M106.689 165.964l-.19 2.034h-8.001l.032-1.223a1.07 1.07 0 0 1 .008-.159v-.612c-.055-1.454-.467-2.447-1.614-2.749l.681-.652.095-.087.111-.096 7.439-1.176c.586.215.974.366 1.417.819l.079 1.684-.055 2.217z" fill="#1f3a70"></path><path d="M105.975 158.099l-8.634.347c-1.136.046-2.021 1.008-1.975 2.149v.003c.045 1.141 1.004 2.029 2.14 1.983l8.634-.347c1.137-.045 2.021-1.007 1.976-2.148v-.003c-.046-1.142-1.004-2.029-2.14-1.984z" class="M"></path><path d="M105.524 154.256l-8.389.353c-1.201.05-2.134 1.069-2.083 2.275l.003.072a2.18 2.18 0 0 0 2.266 2.092l8.389-.353a2.18 2.18 0 0 0 2.083-2.275l-.003-.072a2.18 2.18 0 0 0-2.265-2.092z" class="M"></path><path d="M106.111 162.166c1.108-.048 2.018-.946 2.018-2.058.004-.405-.112-.801-.331-1.14a2.05 2.05 0 0 0-.904-.767 2.17 2.17 0 0 0 .65-.809c.149-.318.219-.667.205-1.019v-.071a2.2 2.2 0 0 0-.201-.829c-.121-.261-.292-.495-.503-.689s-.458-.345-.727-.443-.554-.142-.84-.129l-7.487.318c-.673 1.295-.578 2.686-.079 3.687a1.23 1.23 0 0 1 .12.484c.007.169-.021.336-.081.493-.72 1.923.23 3.314.23 3.314l7.93-.342z" class="Q"></path><path d="M100.065 158.271c.191-.125.201-.447.024-.719s-.475-.39-.665-.265-.201.446-.024.718.475.391.665.266zm3.75-.594c.083-.296-.015-.581-.217-.638s-.432.137-.515.433.015.582.217.638.433-.137.515-.433z" fill="#1b1926"></path><path d="M100.896 159.226c.522.89 1.29 1.097 1.804-.056.006-.01.009-.022.009-.034s-.004-.023-.011-.033-.016-.018-.027-.023-.023-.007-.034-.005l-1.686.048c-.011.001-.022.005-.032.011s-.017.016-.023.026-.008.021-.008.033.002.023.008.033z" fill="#751b40"></path><path d="M101.948 159.099l-.997.024c-.011.001-.022.005-.032.012s-.017.015-.023.025-.008.021-.008.033.002.023.008.033c.451.763 1.076 1.025 1.574.358-.123-.209-.305-.378-.522-.485z" fill="#9c2455"></path></g><g clip-path="url(#Q)"><rect x="115.863" y="149.888" width="19.148" height="8.011" rx="2.033" fill="#bed3ff"></rect><rect x="136.606" y="153.092" width="19.148" height="4.806" rx="2.033" class="I"></rect></g><g class="C"><path d="M115.863 161.534c0-1.123.91-2.033 2.033-2.033h72.525c1.123 0 2.033.91 2.033 2.033v5.977h-76.591v-5.977z"></path><path d="M115.863 167.512h76.591v5.977c0 1.123-.91 2.033-2.033 2.033h-72.525c-1.123 0-2.033-.91-2.033-2.033v-5.977z"></path></g><mask id="F" maskUnits="userSpaceOnUse" x="93" y="181" width="17" height="17"><ellipse cx="101.502" cy="189.941" rx="7.978" ry="8.011" class="H"></ellipse></mask><g mask="url(#F)"><ellipse cx="101.502" cy="189.941" rx="7.978" ry="8.011" fill="#cfdeff"></ellipse><path d="M110.422 200.688a2.23 2.23 0 0 0-.725-.945 2.22 2.22 0 0 0-1.106-.436l-.838-.089c-1.201-4.346-.592-5.334-4.143-6.308l-2.874-.1s-2.92.051-3.995 1.494l1.5 4.94s-.616 3.28-.338 4.942l3.743-.487 1.621 5.267c6.117-.914 8.968-3.76 8.968-3.76l-1.813-4.518z" fill="#cfdeff"></path><path d="M97.426 193.198c4.073 3.828 7.754 6.442 7.137.402l-7.137-.402z" fill="#b8c5ff"></path><path d="M99.425 193.649c3.547 1.671 4.468 2.301 4.237.291l-4.237-.291z" fill="#5697b0"></path><path d="M107.081 196.46c-.431-1.827-.755-2.614-2.573-3.273.489 1.148.701 3.517.701 3.517l1.872-.244z" class="B"></path><path d="M101.027 187.632l-.129-1.01a1.57 1.57 0 0 0-.42-.877c-.229-.24-.528-.401-.854-.459a1.55 1.55 0 0 0-1.042.187c-.315.183-.556.471-.68.814l-1.665 4.93c-.785 2.682 2.759 3.301 6.242 3.032s3.812-1.799 3.331-4.014l-.943-3.669a1.31 1.31 0 0 0-.414-.626c-.196-.164-.435-.267-.688-.297-.284-.033-.571.03-.816.179a1.29 1.29 0 0 0-.536.642l-.392 1.038-.994.13z" fill="#7ce4cc"></path><path d="M105.343 191.299l-.247-.087-1.269.442-1.291.168-2.236-.447s-1.228-1.907-1.14.214c.07 1.465.689 2.306 1.067 2.692a17.62 17.62 0 0 0 2.251-.043 7.62 7.62 0 0 0 1.67-.283c.377-.536.986-1.523 1.195-2.656z" fill="#aafae7"></path><path opacity=".74" d="M99.124 191.407c-.287-.806-.807-2.503-.59-3.782s.502-2.33 1.091-2.341a1.55 1.55 0 0 0-1.042.187c-.315.183-.556.471-.68.814l-1.665 4.931c-.704 2.396 2.057 3.143 5.147 3.084-.67-.111-1.522-.816-2.261-2.893z" fill="url(#J)"></path><path d="M101.385 194.301l-.248.006-.236.004-.37-.017-.116.015-.186-.016c-.376-.372-.995-1.213-1.065-2.679-.005-.026-.004-.054.003-.079.726 1.973 1.562 2.667 2.218 2.766z" fill="#aafae7"></path><path d="M105.038 191.075l-.002.296c-1.357.89-1.578 1.136-5.072.038l-.035-.275.152.042c2.959.749 3.524.815 4.958-.101z" fill="#2c4661"></path><path d="M99.688 192.226c.457-.128.712-.649.57-1.163s-.629-.827-1.086-.699-.712.648-.57 1.162.628.827 1.085.7zm6.002-1.067c.093-.445-.037-.849-.29-.902s-.533.264-.627.709.037.849.29.902.534-.264.627-.709z" fill="#738eff"></path><path opacity=".41" d="M102.223 190.308c-.065-.097.045-.164.132-.202.035-.013.073-.015.11-.006s.069.03.093.059l.331.431c.096.132-.048.138-.19.051s-.377-.175-.476-.333zm1.482.203l.101-.237a.22.22 0 0 0 .015-.129c-.008-.044-.028-.084-.059-.116l-.046-.047c-.021-.013-.028-.014-.034-.013-.023.011-.027.016-.03.022-.062.169-.11.342-.144.519-.015.186.101.171.197.001z" fill="#284e7a"></path><path d="M102.27 187.719l-1.245-.088.994-.129.392-1.038a1.29 1.29 0 0 1 .536-.642 1.28 1.28 0 0 1 .815-.179l.243.048c-.591-.108-.792.576-.909 1.408-.06.455-.043.69-.826.62z" fill="#61c7c7"></path><path d="M104.593 187.53c.002-.318-.206-.576-.465-.578s-.47.255-.472.573.206.576.465.577.469-.255.472-.572zm-4.381-.19c.032-.316-.152-.593-.409-.618s-.491.21-.522.526.152.593.409.618.491-.21.522-.526z" fill="#21354a"></path><path d="M98.241 199.24c.539.009 1.227-.054 1.84-.082-.011-.245.01-.492.064-.732a4.96 4.96 0 0 1 .429-1.162l-1.575-.098c-.101-2.423-1.371-3.732-2.073-3.062a1.85 1.85 0 0 0-.567 1.206l-.002 1.107c-.061.442-.373.575.008 1.394.197.409-.173 1.419 1.876 1.429z" class="B"></path><path d="M99.923 185.377c.5.317.626 1.091.666 1.402l.129 1.01c.018.143.064.19.538.404s.276.004.06-.244l-.29-.318-.13-1.011c-.036-.275-.146-.536-.317-.755s-.398-.387-.656-.488z" fill="#d4ffdc"></path><path d="M104.323 187.151c.179.069.22.485.041.324s-.288-.41-.041-.324zm-4.334-.242c.166.071.208.5.041.324s-.301-.408-.041-.324z" fill="#335a70"></path><path d="M99.952 191.686c.172-.091.186-.403.031-.696s-.419-.458-.59-.367-.186.403-.031.697.419.457.59.366zm5.727-.881c0-.209-.081-.379-.182-.379s-.182.17-.182.379.081.379.181.379.182-.169.183-.379z" fill="#b2a6ff"></path><path d="M104.367 186.065c.278.227.357.638.045.35s-.382-.622-.045-.35z" fill="#d4ffdc"></path></g><g clip-path="url(#R)"><rect x="115.863" y="181.931" width="19.148" height="8.011" rx="2.033" fill="#2ddfb4"></rect><rect x="136.606" y="185.135" width="19.148" height="4.806" rx="2.033" class="I"></rect></g><path d="M115.863 193.576c0-1.122.91-2.033 2.033-2.033h53.377c1.123 0 2.033.911 2.033 2.033v3.945c0 1.123-.91 2.033-2.033 2.033h-55.41v-5.978z" class="C"></path><mask id="G" maskUnits="userSpaceOnUse" x="93" y="205" width="17" height="17"><ellipse cx="101.502" cy="213.973" rx="7.978" ry="8.011" class="H"></ellipse></mask><g mask="url(#G)"><ellipse cx="101.502" cy="213.973" rx="7.978" ry="8.011" fill="#ffb869"></ellipse><path d="M97.408 216.589c.931 3.251 4.677 5.504 7.682 3.379s.021-6.481.021-6.481 1.63-4.122-2.455-5.1-5.1.808-5.248 8.202z" class="N"></path><path d="M103.461 214.209c-.456 0-.826-.494-.826-1.104s.37-1.105.826-1.105.825.494.825 1.105-.37 1.104-.825 1.104z" class="O"></path><path d="M103.814 213.944c-.116-.008-.198-.195-.183-.418s.122-.396.238-.388.199.195.184.417-.122.397-.239.389zm.599-2.901c-.055-.165-.16-.308-.3-.41a.82.82 0 0 0-.966 0c-.14.102-.245.245-.3.41h1.566z" class="G"></path><path d="M104.328 215.739c-.804.213-1.672.022-2.391-.765a.55.55 0 0 0-.368-.186c-.142-.012-.284.032-.394.123a.55.55 0 0 0-.231.351c-.028.144.002.292.083.414 1.1 1.806 2.814 2.082 3.873 1.062.072-.065.126-.149.156-.242s.034-.193.013-.289a.6.6 0 0 0-.092-.227c-.046-.069-.106-.127-.176-.171a.59.59 0 0 0-.473-.07z" fill="#590942"></path><path d="M103.714 215.824a2.12 2.12 0 0 0 .614-.085h.191v.531s-.318.234-1.503.107v-.298l-2.074-.701c.001-.088.022-.174.063-.251a.54.54 0 0 1 .17-.195c.01-.019.015-.021.021-.021a.48.48 0 0 1 .296-.085c.022-.022.064 0 .085 0h.19c.022.021.043.021.043.042s.042 0 .042.021l.085.064a2.37 2.37 0 0 0 .423.383l.296.191a1.64 1.64 0 0 0 .445.191 1.94 1.94 0 0 0 .613.106z" class="O"></path><path d="M101.175 214.911c.01-.019.015-.022.021-.022.087-.059.191-.089.296-.085.022-.021.064 0 .085 0h.19c.022.022.043.022.043.043s.042 0 .042.021l.085.064a1.2 1.2 0 0 0 .233.234l-.593.361-.635-.213a.55.55 0 0 1 .072-.227c.04-.07.095-.13.161-.176z" fill="#b5cdff"></path><path d="M98.276 209.875c.762-1.7 2.095-2.04 4.38-1.488.461.104.903.276 1.312.51.127.68-.91.893-2.835.277.634 1.147-.678 3.187-2.857.701z" class="G"></path><path d="M100.942 208.324l.106-1.403c.009-.128-.009-.256-.053-.377a.91.91 0 0 0-.205-.32c-.09-.091-.199-.161-.319-.206a.89.89 0 0 0-.375-.053c-.144.008-.284.051-.407.125a.9.9 0 0 0-.302.301c-.075.123-.119.263-.128.407a.9.9 0 0 0 .075.421l.635 1.445.973-.34z" class="G"></path><path d="M95.44 215.824l.635.234 1.333-.871v1.084l1.1.871c.231.191.422.426.56.693s.221.558.244.858l.042.871c1.608 1.339 3.809 1.764 5.735.404a3.59 3.59 0 0 0 .825-.765l.656.234s-1.333 5.631-3.555 6.651-3.767 0-3.767 0c-2.328-7.948-1.651-9.435-7.407-7.14l-.275-1.615 3.873-1.509z" fill="#ef6767"></path><path d="M100.053 213.296l-4.19-3.931-.381.489 3.238 6.055 1.333-2.613z" class="N"></path><path d="M98.53 212.403l-1.651-1.168 1.27 2.295-.233-.893.614-.234z" fill="#3366e0"></path></g><g clip-path="url(#S)"><rect x="115.863" y="205.963" width="19.148" height="8.011" rx="2.033" class="J"></rect><rect x="136.606" y="209.167" width="19.148" height="4.806" rx="2.033" class="I"></rect></g><g class="C"><path d="M115.863 217.608c0-1.123.91-2.033 2.033-2.033h72.525c1.123 0 2.033.91 2.033 2.033v3.945c0 1.123-.91 2.033-2.033 2.033h-74.558v-5.978z"></path><path d="M115.863 223.586h63.826v5.978c0 1.122-.91 2.033-2.033 2.033h-59.76c-1.123 0-2.033-.911-2.033-2.033v-5.978z"></path></g><path d="M19.725 22.98c0-2.245 1.82-4.066 4.066-4.066h58.563v212.282H23.791c-2.245 0-4.066-1.82-4.066-4.066V22.98z" fill="#1c1b29"></path><g clip-path="url(#T)" class="D F"><path d="M28.521 46.551c-.158 0-.278-.143-.25-.298l.23-1.304h-1.293c-.158 0-.277-.142-.25-.298l.051-.293c.021-.122.127-.211.25-.211h1.382l.423-2.403H27.77c-.158 0-.277-.142-.25-.298l.051-.293c.021-.122.127-.21.25-.21h1.382l.246-1.392c.021-.121.127-.21.25-.21h.282c.158 0 .278.143.25.298l-.23 1.304h2.393l.246-1.392c.021-.121.127-.21.25-.21h.282c.158 0 .278.143.25.298l-.23 1.304h1.293c.158 0 .277.142.25.298l-.051.293c-.021.122-.127.21-.25.21h-1.382l-.423 2.403h1.293c.158 0 .278.142.25.298l-.051.293c-.021.122-.127.211-.25.211H32.49l-.246 1.392c-.021.121-.127.21-.25.21h-.282c-.158 0-.278-.143-.25-.298l.23-1.304h-2.393l-.246 1.392c-.021.121-.127.21-.25.21h-.282zm1.341-4.806l-.423 2.403h2.393l.423-2.403h-2.393z"></path></g><rect x="39.671" y="38.14" width="36.301" height="9.613" rx="2.033" class="D"></rect><g clip-path="url(#U)" class="D F"><path d="M28.521 65.777c-.158 0-.278-.143-.25-.298l.23-1.304h-1.293c-.158 0-.277-.142-.25-.298l.051-.293c.021-.122.127-.21.25-.21h1.382l.423-2.403H27.77c-.158 0-.277-.142-.25-.298l.051-.293c.021-.122.127-.211.25-.211h1.382l.246-1.392c.021-.121.127-.21.25-.21h.282c.158 0 .278.143.25.298l-.23 1.304h2.393l.246-1.392c.021-.121.127-.21.25-.21h.282c.158 0 .278.143.25.298l-.23 1.304h1.293c.158 0 .277.142.25.298l-.051.293c-.021.122-.127.211-.25.211h-1.382l-.423 2.403h1.293c.158 0 .278.142.25.298l-.051.293c-.021.122-.127.21-.25.21H32.49l-.246 1.392c-.021.121-.127.21-.25.21h-.282c-.158 0-.278-.143-.25-.298l.23-1.304h-2.393l-.246 1.392c-.021.121-.127.21-.25.21h-.282zm1.341-4.806l-.423 2.403h2.393l.423-2.403h-2.393z"></path></g><rect x="39.671" y="57.365" width="33.11" height="9.613" rx="2.033" class="D"></rect><g clip-path="url(#V)" class="D F"><path d="M28.521 85.002c-.158 0-.278-.143-.25-.298l.23-1.304h-1.293c-.158 0-.277-.142-.25-.298l.051-.293c.021-.122.127-.211.25-.211h1.382l.423-2.403H27.77c-.158 0-.277-.142-.25-.298l.051-.293c.021-.122.127-.211.25-.211h1.382l.246-1.392c.021-.121.127-.21.25-.21h.282c.158 0 .278.143.25.298l-.23 1.304h2.393l.246-1.392c.021-.121.127-.21.25-.21h.282c.158 0 .278.143.25.298l-.23 1.304h1.293c.158 0 .277.142.25.298l-.051.293c-.021.122-.127.21-.25.21h-1.382l-.423 2.403h1.293c.158 0 .278.142.25.298l-.051.293c-.021.122-.127.21-.25.21H32.49l-.246 1.392c-.021.121-.127.21-.25.21h-.282c-.158 0-.278-.143-.25-.298l.23-1.304h-2.393l-.246 1.392c-.021.121-.127.21-.25.21h-.282zm1.341-4.806l-.423 2.403h2.393l.423-2.403h-2.393z"></path></g><rect x="39.671" y="76.591" width="36.301" height="9.613" rx="2.033" class="D"></rect><g clip-path="url(#W)" class="D F"><path d="M28.521 104.228c-.158 0-.278-.143-.25-.299l.23-1.304h-1.293c-.158 0-.277-.142-.25-.297l.051-.293c.021-.122.127-.211.25-.211h1.382l.423-2.403H27.77c-.158 0-.277-.142-.25-.298l.051-.293c.021-.122.127-.211.25-.211h1.382l.246-1.392c.021-.121.127-.21.25-.21h.282c.158 0 .278.143.25.298l-.23 1.304h2.393l.246-1.392c.021-.121.127-.21.25-.21h.282c.158 0 .278.143.25.298l-.23 1.304h1.293c.158 0 .277.142.25.298l-.051.293c-.021.122-.127.21-.25.21h-1.382l-.423 2.403h1.293c.158 0 .278.143.25.298l-.051.293c-.021.122-.127.21-.25.21H32.49l-.246 1.393c-.021.121-.127.21-.25.21h-.282c-.158 0-.278-.143-.25-.299l.23-1.304h-2.393l-.246 1.393c-.021.121-.127.21-.25.21h-.282zm1.341-4.807l-.423 2.403h2.393l.423-2.403h-2.393z"></path></g><rect x="39.671" y="95.816" width="26.727" height="9.613" rx="2.033" class="D"></rect><g clip-path="url(#X)" class="D F"><path d="M28.521 123.453c-.158 0-.278-.143-.25-.298l.23-1.304h-1.293c-.158 0-.277-.142-.25-.298l.051-.293c.021-.121.127-.21.25-.21h1.382l.423-2.403H27.77c-.158 0-.277-.143-.25-.298l.051-.293c.021-.122.127-.21.25-.21h1.382l.246-1.393c.021-.121.127-.209.25-.209h.282c.158 0 .278.142.25.298l-.23 1.304h2.393l.246-1.393c.021-.121.127-.209.25-.209h.282c.158 0 .278.142.25.298l-.23 1.304h1.293c.158 0 .277.142.25.297l-.051.293c-.021.122-.127.211-.25.211h-1.382l-.423 2.403h1.293c.158 0 .278.142.25.298l-.051.292c-.021.122-.127.211-.25.211H32.49l-.246 1.392c-.021.122-.127.21-.25.21h-.282c-.158 0-.278-.143-.25-.298l.23-1.304h-2.393l-.246 1.392c-.021.122-.127.21-.25.21h-.282zm1.341-4.806l-.423 2.403h2.393l.423-2.403h-2.393z"></path></g><g class="D"><rect x="39.671" y="115.042" width="36.301" height="9.613" rx="2.033"></rect><path d="M95.937 43.347c-.158 0-.278-.143-.25-.298l.231-1.304h-1.293c-.158 0-.278-.142-.25-.298l.051-.293c.021-.122.127-.21.25-.21h1.382l.423-2.403h-1.293c-.158 0-.277-.142-.25-.298l.051-.293c.021-.122.127-.211.25-.211h1.382l.246-1.392c.021-.121.127-.21.25-.21h.282c.158 0 .278.143.25.298l-.231 1.304h2.393l.246-1.392c.021-.121.127-.21.25-.21h.282c.158 0 .278.143.25.298l-.23 1.304h1.293c.158 0 .278.142.25.298l-.051.293c-.021.122-.126.211-.25.211h-1.382l-.423 2.403h1.294c.157 0 .277.142.25.298l-.051.293c-.021.122-.127.211-.25.211h-1.382l-.246 1.392c-.022.121-.127.21-.25.21h-.282c-.158 0-.278-.143-.25-.298l.231-1.304h-2.394l-.246 1.392c-.022.121-.127.21-.25.21h-.282zm1.341-4.806l-.423 2.403h2.394l.423-2.403h-2.394z" class="F"></path></g><g class="B"><path d="M106.76 38.677v2.78c0 .729.375 1.169 1.101 1.169.51 0 .925-.28 1.284-.625l.088.545h.814v-3.869h-.957v2.611c-.28.288-.583.481-.878.481-.351 0-.495-.224-.495-.561v-2.531h-.957zm6.831 1.882c0 .849-.375 1.258-.87 1.258a1.5 1.5 0 0 1-.742-.168V39.99c.256-.328.527-.545.87-.545.431 0 .742.368.742 1.113zm.965-.056c0-1.298-.646-1.906-1.452-1.906-.534 0-.909.296-1.18.609l-.088-.529h-.814v5.359l.957-.144v-1.458a2.5 2.5 0 0 0 .894.152c.886 0 1.683-.641 1.683-2.083zm1.556.16c0-.849.359-1.258.862-1.258a1.55 1.55 0 0 1 .75.168v1.658c-.255.328-.527.537-.878.537-.423 0-.734-.352-.734-1.105zm-.965.056c0 1.306.646 1.907 1.452 1.907.535 0 .91-.288 1.181-.617l.08.537h.821v-5.784l-.957.152v1.866a2.71 2.71 0 0 0-.894-.144c-.893 0-1.683.641-1.683 2.083zm6.614.761c-.263.256-.574.417-.902.417-.295 0-.47-.168-.47-.449 0-.368.263-.697 1.372-.833v.865zm.957 1.065v-2.651c0-.929-.494-1.298-1.492-1.298-.614 0-1.085.136-1.531.312l.119.769c.415-.184.838-.312 1.285-.312.423 0 .662.16.662.577v.112c-1.556.152-2.322.561-2.322 1.498 0 .673.439 1.073 1.093 1.073.575 0 .974-.256 1.285-.585l.08.505h.821zm3.024.001l-.12-.809a1.18 1.18 0 0 1-.303.032c-.367 0-.503-.168-.503-.481v-1.826h.902l-.12-.785h-.782v-1.37l-.949.144v1.226h-.543v.785h.543v1.987c0 .881.51 1.161 1.268 1.161a2.69 2.69 0 0 0 .607-.064zm2.215-3.285c.463 0 .702.336.766.937h-1.54c.072-.625.391-.937.774-.937zm1.692 2.892l-.112-.753c-.423.296-.83.481-1.324.481-.591 0-.998-.328-1.038-1.081h2.474l.008-.232c0-1.097-.519-1.971-1.676-1.971-1.005 0-1.755.761-1.755 2.019 0 1.394.806 2.011 1.883 2.011.622 0 1.125-.184 1.54-.473zm3.637-.745c0-.729-.391-1.001-1.388-1.258-.574-.152-.718-.272-.718-.481s.176-.352.535-.352c.383 0 .837.136 1.22.352l.128-.801c-.383-.168-.846-.272-1.348-.272-.894 0-1.421.473-1.421 1.145 0 .705.391.977 1.325 1.218.614.152.782.264.782.537 0 .256-.224.409-.639.409-.478 0-.989-.184-1.404-.457l-.127.801a3.34 3.34 0 0 0 1.5.377c1.013 0 1.555-.457 1.555-1.218z"></path></g></g><path d="M233.365 265.424v58.558h-60.73v-58.558H203a9.34 9.34 0 0 0-3.638.703 9.37 9.37 0 0 0-3.084 2.06 9.42 9.42 0 0 0-2.052 3.097c-.473 1.159-.711 2.4-.7 3.653v30.175a9.53 9.53 0 0 0 1.577 5.293c1.036 1.569 2.512 2.794 4.241 3.52a9.44 9.44 0 0 0 5.474.56 9.46 9.46 0 0 0 4.861-2.589c1.777-1.809 2.78-4.243 2.795-6.784v-30.175c0-2.523-.998-4.943-2.775-6.727a9.45 9.45 0 0 0-6.699-2.786h30.365z" class="P"></path><path d="M286.017 320.629H119.983a79.78 79.78 0 0 0-28.812 5.225V331h223.58v-5.146a79.1 79.1 0 0 0-28.734-5.225z" fill="#2c2c40"></path><path d="M314.751 325.854H91.171v5.224h223.58v-5.224z" class="P"></path></g><defs><linearGradient id="H" x1="99.232" y1="127.453" x2="99.951" y2="135.756" gradientUnits="userSpaceOnUse"><stop stop-color="#ffc285"></stop><stop offset="1" stop-color="#db8d6b"></stop></linearGradient><linearGradient id="I" x1="92.259" y1="135.963" x2="107.214" y2="128.672" gradientUnits="userSpaceOnUse"><stop stop-color="#d67569"></stop><stop offset="1" stop-color="#e39e7f"></stop></linearGradient><linearGradient id="J" x1="95.905" y1="191.43" x2="98.528" y2="190.44" gradientUnits="userSpaceOnUse"><stop stop-color="#61c7c7"></stop><stop offset="1" stop-color="#54b9c7"></stop></linearGradient><clipPath id="K"><path d="M0 0h406v331H0z" class="B"></path></clipPath><clipPath id="L"><path transform="translate(19.725 18.914)" d="M0 0h301.976v212.282H0z" class="B"></path></clipPath><clipPath id="M"><path transform="translate(115.863 55.363)" d="M0 0h39.891v8.011H0z" class="B"></path></clipPath><clipPath id="N"><path transform="translate(119.054 71.384)" d="M0 0h9.574v9.613H0z" class="B"></path></clipPath><clipPath id="O"><path transform="translate(115.863 93.814)" d="M0 0h39.891v8.011H0z" class="B"></path></clipPath><clipPath id="P"><path transform="translate(115.863 125.856)" d="M0 0h39.891v8.011H0z" class="B"></path></clipPath><clipPath id="Q"><path transform="translate(115.863 149.888)" d="M0 0h39.891v8.011H0z" class="B"></path></clipPath><clipPath id="R"><path transform="translate(115.863 181.931)" d="M0 0h39.891v8.011H0z" class="B"></path></clipPath><clipPath id="S"><path transform="translate(115.863 205.963)" d="M0 0h39.891v8.011H0z" class="B"></path></clipPath><clipPath id="T"><path transform="translate(26.108 38.14)" d="M0 0h9.574v9.613H0z" class="B"></path></clipPath><clipPath id="U"><path transform="translate(26.108 57.365)" d="M0 0h9.574v9.613H0z" class="B"></path></clipPath><clipPath id="V"><path transform="translate(26.108 76.591)" d="M0 0h9.574v9.613H0z" class="B"></path></clipPath><clipPath id="W"><path transform="translate(26.108 95.816)" d="M0 0h9.574v9.613H0z" class="B"></path></clipPath><clipPath id="X"><path transform="translate(26.108 115.042)" d="M0 0h9.574v9.613H0z" class="B"></path></clipPath><path id="Y" d="M401.34 0H4.66A4.67 4.67 0 0 0 0 4.678v256.028a4.67 4.67 0 0 0 4.66 4.679h396.68a4.67 4.67 0 0 0 4.66-4.679V4.678A4.67 4.67 0 0 0 401.34 0z"></path><path id="Z" d="M103.814 101.795c-.116-.008-.198-.195-.183-.418s.122-.396.238-.388.199.195.184.417-.122.397-.239.389z"></path></defs></svg>